<svg width="40" height="22" fill="none" xmlns="http://www.w3.org/2000/svg"><path d="M30.931 0c-2.424 0-4.701 1.004-6.412 2.826L20 7.632l-4.512-4.807C13.774 1.003 11.498 0 9.075 0 4.069 0 0 4.328 0 9.646v1.978c0 5.32 4.07 9.646 9.069 9.646 2.423 0 4.701-1.003 6.412-2.825L20 13.648l4.514 4.803c1.713 1.822 3.99 2.826 6.413 2.826C35.93 21.273 40 16.945 40 11.627V9.65C40 4.328 35.931.001 30.931.001zM12.656 15.444c-.957 1.018-2.23 1.579-3.586 1.579C6.275 17.019 4 14.599 4 11.627V9.65c0-2.973 2.276-5.393 5.071-5.393 1.356 0 2.629.56 3.587 1.579l4.514 4.803-4.516 4.805zM36 11.627c0 2.973-2.276 5.394-5.071 5.394-1.356 0-2.629-.561-3.586-1.58l-4.515-4.802 4.515-4.803c.956-1.018 2.23-1.58 3.586-1.58C33.725 4.256 36 6.675 36 9.647v1.981z" fill="#3C3C3C"/></svg>