<svg width="50" height="50" fill="none" xmlns="http://www.w3.org/2000/svg"><path d="M25 0c-6.79 0-7.641.028-10.307.148-2.661.12-4.479.535-6.069 1.142-1.644.628-3.038 1.469-4.428 2.835-1.39 1.366-2.245 2.737-2.884 4.353C.694 10.04.272 11.828.15 14.444.03 17.064 0 17.902 0 24.576c0 6.675.029 7.512.15 10.133.122 2.616.544 4.403 1.162 5.966.64 1.616 1.494 2.987 2.884 4.353 1.39 1.366 2.784 2.207 4.428 2.835 1.59.607 3.408 1.023 6.069 1.142 2.666.12 3.517.148 10.307.148 6.79 0 7.641-.029 10.307-.148 2.661-.12 4.479-.535 6.069-1.142 1.644-.628 3.038-1.469 4.428-2.835 1.39-1.366 2.245-2.737 2.884-4.353.617-1.563 1.04-3.35 1.162-5.966.121-2.621.15-3.458.15-10.133 0-6.674-.029-7.511-.15-10.132-.122-2.616-.544-4.403-1.162-5.966-.64-1.616-1.494-2.987-2.884-4.353-1.39-1.366-2.784-2.207-4.428-2.835C39.786.683 37.968.267 35.307.148 32.642.028 31.79 0 25 0zm0 4.428c6.675 0 7.466.025 10.102.143 2.438.11 3.761.51 4.642.847 1.167.446 2 .978 2.875 1.838.875.86 1.416 1.679 1.87 2.826.342.866.75 2.167.86 4.563.121 2.592.147 3.37.147 9.931 0 6.563-.026 7.34-.146 9.931-.111 2.397-.519 3.698-.861 4.564-.454 1.147-.995 1.966-1.87 2.826-.875.86-1.708 1.392-2.875 1.838-.88.337-2.204.737-4.642.846-2.636.119-3.426.144-10.102.144s-7.466-.025-10.102-.144c-2.438-.109-3.761-.51-4.642-.846-1.167-.446-2-.978-2.875-1.838-.875-.86-1.417-1.679-1.87-2.826-.342-.866-.75-2.167-.86-4.564-.121-2.591-.146-3.368-.146-9.93 0-6.563.025-7.34.145-9.932.111-2.396.519-3.697.861-4.563.453-1.147.995-1.966 1.87-2.826.875-.86 1.708-1.392 2.875-1.838.88-.337 2.204-.737 4.642-.847 2.636-.118 3.427-.143 10.102-.143z" fill="#3C3C3C"/><path d="M24.997 32.766c-4.602 0-8.333-3.668-8.333-8.192 0-4.525 3.73-8.192 8.333-8.192s8.334 3.667 8.334 8.192c0 4.524-3.731 8.192-8.334 8.192zm0-20.812c-7.09 0-12.838 5.65-12.838 12.62 0 6.97 5.748 12.62 12.838 12.62 7.09 0 12.838-5.65 12.838-12.62 0-6.97-5.748-12.62-12.838-12.62zm16.351-.497c0 1.629-1.343 2.949-3 2.949s-3-1.32-3-2.95c0-1.628 1.343-2.948 3-2.948s3 1.32 3 2.949z" fill="#3C3C3C"/></svg>