<svg width="40" height="40" fill="none" xmlns="http://www.w3.org/2000/svg"><path d="M20 0c-5.432 0-6.113.023-8.246.118-2.129.096-3.583.428-4.855.914-1.315.503-2.43 1.175-3.542 2.268A9.622 9.622 0 001.05 6.782C.555 8.033.217 9.462.12 11.555.023 13.652 0 14.322 0 19.661c0 5.34.023 6.01.12 8.107.097 2.092.435 3.522.93 4.772a9.623 9.623 0 002.307 3.483c1.112 1.093 2.227 1.765 3.542 2.268 1.272.486 2.726.818 4.855.913 2.133.096 2.814.119 8.246.119s6.113-.023 8.246-.119c2.129-.095 3.583-.427 4.855-.913 1.315-.503 2.43-1.175 3.542-2.268a9.624 9.624 0 002.307-3.483c.494-1.25.833-2.68.93-4.772.097-2.097.12-2.767.12-8.107s-.023-6.009-.12-8.106c-.097-2.093-.436-3.522-.93-4.773A9.623 9.623 0 0036.643 3.3c-1.112-1.093-2.227-1.765-3.542-2.268-1.272-.486-2.726-.818-4.855-.914C26.113.023 25.432 0 20 0zm0 3.543c5.34 0 5.973.02 8.082.114 1.95.088 3.009.408 3.713.677.934.357 1.6.783 2.3 1.471a6.082 6.082 0 011.496 2.26c.274.693.6 1.735.689 3.652.096 2.073.116 2.695.116 7.944 0 5.25-.02 5.872-.116 7.945-.09 1.917-.415 2.958-.689 3.651a6.082 6.082 0 01-1.496 2.26c-.7.689-1.366 1.115-2.3 1.471-.704.27-1.763.59-3.713.678-2.109.094-2.741.114-8.082.114-5.34 0-5.973-.02-8.082-.114-1.95-.088-3.009-.408-3.713-.677-.934-.357-1.6-.783-2.3-1.471a6.082 6.082 0 01-1.496-2.26c-.274-.694-.6-1.735-.689-3.652-.096-2.073-.116-2.695-.116-7.945s.02-5.871.116-7.945c.09-1.916.415-2.958.689-3.65a6.082 6.082 0 011.496-2.261c.7-.688 1.366-1.114 2.3-1.47.704-.27 1.763-.59 3.713-.678 2.11-.094 2.742-.114 8.082-.114z" fill="#FA89A6"/><path d="M19.998 26.213c-3.682 0-6.667-2.934-6.667-6.553 0-3.62 2.985-6.554 6.667-6.554s6.666 2.934 6.666 6.554c0 3.619-2.984 6.553-6.666 6.553zm0-16.65c-5.672 0-10.27 4.52-10.27 10.097 0 5.576 4.598 10.096 10.27 10.096s10.27-4.52 10.27-10.096c0-5.577-4.598-10.097-10.27-10.097zm13.081-.397c0 1.303-1.075 2.359-2.4 2.359-1.326 0-2.4-1.056-2.4-2.36 0-1.303 1.074-2.359 2.4-2.359 1.325 0 2.4 1.056 2.4 2.36z" fill="#FA89A6"/></svg>