<svg width="64" height="61" fill="none" xmlns="http://www.w3.org/2000/svg"><path d="M37.625 26.143c-.621 0-1.125-.488-1.125-1.09 0-4.204 3.532-7.625 7.875-7.625 3.294 0 6.266 2.011 7.398 5.005a1.082 1.082 0 01-.67 1.398c-.583.205-1.231-.085-1.445-.649-.808-2.14-2.93-3.575-5.283-3.575-3.1 0-5.625 2.442-5.625 5.447 0 .6-.504 1.089-1.125 1.089zm-11.25 0c-.62 0-1.125-.488-1.125-1.09 0-3.004-2.524-5.446-5.625-5.446-2.315 0-4.428 1.408-5.256 3.499a1.135 1.135 0 01-1.453.627 1.079 1.079 0 01-.648-1.407c1.159-2.93 4.117-4.898 7.357-4.898 4.343 0 7.875 3.42 7.875 7.625 0 .602-.504 1.09-1.125 1.09z" fill="#000"/><path d="M32 61C14.63 61 .5 47.319.5 30.5.5 13.681 14.63 0 32 0c17.37 0 31.5 13.681 31.5 30.5C63.5 47.319 49.37 61 32 61zm0-58.821C15.872 2.179 2.75 14.884 2.75 30.5c0 15.616 13.122 28.321 29.25 28.321S61.25 46.116 61.25 30.5C61.25 14.884 48.128 2.179 32 2.179z" fill="#000"/><path d="M32 43.572c-13.428 0-19.753-7.72-20.016-8.048a1.066 1.066 0 01.2-1.525c.493-.366 1.2-.283 1.578.191.058.07 5.962 7.203 18.238 7.203 12.337 0 18.178-7.128 18.234-7.203a1.152 1.152 0 011.58-.195c.49.368.58 1.052.2 1.527-.261.33-6.586 8.05-20.014 8.05zM48.88 14.16c-.095 0-.187-.01-.282-.034-.042-.011-4.268-1.055-7.596-1.055-.62 0-1.125-.488-1.125-1.089s.504-1.09 1.125-1.09c3.616 0 7.972 1.08 8.156 1.125.601.15.963.745.808 1.327-.13.492-.587.817-1.087.817zm-33.755 0c-.502 0-.96-.326-1.09-.82a1.085 1.085 0 01.813-1.323c.187-.048 4.606-1.124 8.152-1.124.62 0 1.125.488 1.125 1.09 0 .6-.504 1.088-1.125 1.088-3.26 0-7.556 1.044-7.598 1.055a1.093 1.093 0 01-.277.035z" fill="#000"/></svg>